<svg xmlns="http://www.w3.org/2000/svg" width="123.4" height="45.308" viewBox="0 0 123.4 45.308"><g id="Group_63529" data-name="Group 63529" transform="translate(-198.6 -60)"><g id="Group_63145" data-name="Group 63145" transform="translate(0 -27.833)"><text id="LACK_IRD" data-name="LACKIRD" transform="translate(250 103.833)" fill="#0f0f0f" font-size="19" font-family="'Kobe1\.1-Black', 'Kobe1\.1'" font-weight="800"><tspan x="0" y="0">L</tspan><tspan y="0">A</tspan><tspan y="0">CK</tspan><tspan x="0" y="21">IRD</tspan></text><g id="Group_63144" data-name="Group 63144" transform="translate(200 90.361)"><path id="Path_338798" data-name="Path 338798" d="M451.658,554.071l14.8-34.164h14.779a.259.259,0,0,1,.248.348c-.389,1.035-1.99,4.122-7.625,5.723,0,0,10.083,9.148-8.374,18.538" transform="translate(-441.819 -519.907)" fill="none" stroke="#ec1c24" stroke-linecap="round" stroke-miterlimit="10" stroke-width="2"></path><path id="Path_338799" data-name="Path 338799" d="M441.819,537.643c4.5,5.983,9.576,8.069,13.639,8.621a18.251,18.251,0,0,0,5.935-.166h0" transform="translate(-441.819 -520.086)" fill="none" stroke="#ec1c24" stroke-linecap="round" stroke-miterlimit="10" stroke-width="2"></path><line id="Line_2" data-name="Line 2" x1="9.787" y2="23.419" transform="translate(13.049 18.053)" fill="none" stroke="#ec1c24" stroke-linecap="round" stroke-miterlimit="10" stroke-width="2"></line></g></g><g id="trademark" transform="translate(298 80.5)"><path id="Path_341434" data-name="Path 341434" d="M0,1.25H1.562V5h1.25V1.25H4.375V0H0Z" transform="translate(0 4)" fill="#0f0f0f"></path><path id="Path_341435" data-name="Path 341435" d="M4.116,0,2.5,1.616.884,0H0V5H1.25V2.134l.991.991h.518l.991-.991V5H5V0Z" transform="translate(5 4)" fill="#0f0f0f"></path></g></g></svg>